<?xml version="1.0" encoding="UTF-8"?>
<svg width="500" height="500" viewBox="0 0 500 500" fill="none" xmlns="http://www.w3.org/2000/svg">
  <!-- Background Circle -->
  <circle cx="250" cy="250" r="200" fill="url(#gradient)" opacity="0.1"/>
  
  <!-- Brain Circuit Pattern -->
  <path d="M250 100 C 350 100, 380 200, 380 250 C 380 300, 350 400, 250 400 C 150 400, 120 300, 120 250 C 120 200, 150 100, 250 100" 
        stroke="#4F46E5" stroke-width="12" fill="none" stroke-linecap="round"/>
  
  <!-- Circuit Lines -->
  <path d="M180 250 L 320 250" stroke="#4F46E5" stroke-width="8" stroke-linecap="round"/>
  <path d="M250 180 L 250 320" stroke="#4F46E5" stroke-width="8" stroke-linecap="round"/>
  
  <!-- Apple Shape -->
  <path d="M250 150 C 300 150, 330 200, 330 250 C 330 300, 300 350, 250 350 C 200 350, 170 300, 170 250 C 170 200, 200 150, 250 150" 
        fill="#60A5FA" fill-opacity="0.8"/>
  
  <!-- Leaf -->
  <path d="M250 150 C 270 130, 290 130, 310 150" fill="#34D399" stroke="#34D399" stroke-width="2"/>
  
  <!-- Pulse Lines -->
  <path d="M200 265 L 220 265 L 235 235 L 265 295 L 280 265 L 300 265" 
        stroke="#34D399" stroke-width="4" stroke-linecap="round"/>
  
  <!-- Gradient Definition -->
  <defs>
    <linearGradient id="gradient" x1="0%" y1="0%" x2="100%" y2="100%">
      <stop offset="0%" style="stop-color:#4F46E5;stop-opacity:1" />
      <stop offset="100%" style="stop-color:#60A5FA;stop-opacity:1" />
    </linearGradient>
  </defs>
</svg> 